<svg xmlns="http://www.w3.org/2000/svg" width="41" height="41" viewBox="0 0 41 41" fill="none">
  <path d="M8.54167 41H32.4583C34.7229 40.9973 36.8939 40.0965 38.4952 38.4952C40.0965 36.8939 40.9973 34.7229 41 32.4583V8.54167C40.9973 6.27711 40.0965 4.10608 38.4952 2.50479C36.8939 0.903507 34.7229 0.00271259 32.4583 0L8.54167 0C6.27711 0.00271259 4.10608 0.903507 2.50479 2.50479C0.903507 4.10608 0.00271259 6.27711 0 8.54167L0 32.4583C0.00271259 34.7229 0.903507 36.8939 2.50479 38.4952C4.10608 40.0965 6.27711 40.9973 8.54167 41ZM10.7505 16.1694L16.8766 10.0433C17.3525 9.5673 17.9176 9.18972 18.5394 8.93211C19.1613 8.6745 19.8278 8.54191 20.5009 8.54191C21.174 8.54191 21.8405 8.6745 22.4623 8.93211C23.0842 9.18972 23.6492 9.5673 24.1251 10.0433L30.2495 16.1694L30.2905 16.2121C30.4533 16.3719 30.5825 16.5628 30.6703 16.7733C30.7582 16.9839 30.803 17.2099 30.8021 17.4381C30.8012 17.6663 30.7546 17.8919 30.665 18.1018C30.5754 18.3117 30.4447 18.5014 30.2806 18.66C30.1165 18.8185 29.9223 18.9425 29.7095 19.0248C29.4966 19.107 29.2695 19.1458 29.0414 19.1388C28.8134 19.1318 28.589 19.0792 28.3816 18.9841C28.1742 18.8889 27.988 18.7532 27.8339 18.585L22.2083 12.9594L22.2203 30.75C22.2203 31.2031 22.0403 31.6376 21.7199 31.958C21.3996 32.2784 20.965 32.4583 20.512 32.4583C20.0589 32.4583 19.6244 32.2784 19.304 31.958C18.9836 31.6376 18.8036 31.2031 18.8036 30.75L18.7917 12.9611L13.1661 18.585C13.0085 18.7481 12.82 18.8783 12.6116 18.9678C12.4032 19.0573 12.179 19.1045 11.9522 19.1064C11.7254 19.1084 11.5004 19.0652 11.2905 18.9793C11.0805 18.8934 10.8898 18.7665 10.7294 18.6061C10.569 18.4457 10.4421 18.255 10.3562 18.045C10.2703 17.8351 10.2271 17.6101 10.2291 17.3833C10.231 17.1565 10.2782 16.9323 10.3677 16.7239C10.4572 16.5155 10.5874 16.327 10.7505 16.1694Z" fill="#494A54"/>
</svg>